<svg xmlns="http://www.w3.org/2000/svg" viewBox="0 0 512 512" fill="none">
  <!-- Dark background -->
  <rect width="512" height="512" rx="64" fill="#0A0A0A"/>
  
  <!-- Outer ring (gold) -->
  <circle cx="256" cy="256" r="200" stroke="#D4AF37" stroke-width="24" fill="none"/>
  
  <!-- Inner eye shape -->
  <path d="M256 156c-55 0-105 25-140 65-5 6-5 14 0 20 35 40 85 65 140 65s105-25 140-65c5-6 5-14 0-20-35-40-85-65-140-65z" fill="#D4AF37" opacity="0.2"/>
  
  <!-- Center iris -->
  <circle cx="256" cy="231" r="60" fill="#D4AF37"/>
  
  <!-- Pupil -->
  <circle cx="256" cy="231" r="25" fill="#0A0A0A"/>
  
  <!-- Alert indicator (top right) -->
  <circle cx="380" cy="132" r="40" fill="#FF4444"/>
  <text x="380" y="148" text-anchor="middle" fill="white" font-family="Arial" font-size="48" font-weight="bold">!</text>
  
  <!-- Scan lines effect -->
  <line x1="256" y1="56" x2="256" y2="106" stroke="#D4AF37" stroke-width="3" opacity="0.5"/>
  <line x1="256" y1="356" x2="256" y2="406" stroke="#D4AF37" stroke-width="3" opacity="0.5"/>
  <line x1="106" y1="231" x2="156" y2="231" stroke="#D4AF37" stroke-width="3" opacity="0.5"/>
  <line x1="356" y1="231" x2="406" y2="231" stroke="#D4AF37" stroke-width="3" opacity="0.5"/>
</svg>